<svg width="92" height="34" viewBox="0 0 92 34" fill="none" xmlns="http://www.w3.org/2000/svg">
<path fill-rule="evenodd" clip-rule="evenodd" d="M0 16.7185V33.4371H2.3119H4.6238V32.5369V31.6367L5.32865 32.207C5.71637 32.5208 6.43949 32.9745 6.9357 33.2153C7.43192 33.4562 8.19315 33.736 8.62734 33.8372C9.22561 33.9766 9.78543 34.0091 10.9392 33.9715C12.1888 33.9309 12.6234 33.8689 13.3639 33.6261C13.8601 33.4634 14.596 33.1399 14.9992 32.9073C15.4223 32.663 16.1613 32.0539 16.7472 31.4662C17.3054 30.9063 17.9312 30.1617 18.1378 29.8114C18.3443 29.461 18.6838 28.7783 18.8921 28.2942C19.1004 27.81 19.3625 26.9833 19.4744 26.457C19.6243 25.753 19.6768 25.0239 19.6729 23.6987C19.6686 22.2255 19.6219 21.7127 19.4161 20.8841C19.2778 20.3268 18.9416 19.4121 18.6689 18.8514C18.3963 18.2908 17.8848 17.4638 17.5321 17.014C17.1795 16.5641 16.5541 15.9177 16.1424 15.5776C15.7307 15.2376 14.9879 14.7604 14.4917 14.5172C13.9955 14.274 13.285 13.9955 12.9128 13.8982C12.5407 13.801 11.7508 13.6923 11.1577 13.6567C10.514 13.6181 9.76479 13.6467 9.29948 13.7277C8.87071 13.8022 8.16056 14.0024 7.72152 14.1726C7.28238 14.3428 6.64046 14.6694 6.29491 14.8984C5.94937 15.1274 5.43195 15.5209 5.14516 15.7728L4.6238 16.2311V8.11553V0H2.3119H0V16.7185ZM66.0583 2.25267C65.9035 2.34904 65.861 2.53187 65.861 3.10166C65.861 3.81667 65.8657 3.82793 66.1711 3.83671C66.3417 3.84155 66.4172 3.87138 66.339 3.90279C66.2608 3.93432 66.1486 4.04994 66.0896 4.15993C66.0306 4.26981 65.5492 7.65777 65.0195 11.6887L64.0566 19.0177V25.763C64.0566 29.4729 64.0891 32.6705 64.1289 32.8689C64.1686 33.0671 64.3649 33.4029 64.5651 33.6147L64.929 34H67.4661C69.8682 34 70.0192 33.9875 70.3027 33.7649C70.4673 33.6356 70.6772 33.3847 70.769 33.2075C70.9112 32.9331 70.9359 31.8337 70.9359 25.7852V18.685L70.0347 11.9038C69.539 8.17407 69.1023 4.92719 69.0641 4.6884C69.026 4.44972 68.8987 4.15836 68.7812 4.04105C68.5715 3.83176 68.5729 3.82781 68.8495 3.82781C69.1235 3.82781 69.1315 3.8053 69.1315 3.03974V2.25166H68.5282C68.1964 2.25166 67.5493 2.2243 67.0903 2.19075C66.5762 2.15326 66.1799 2.17713 66.0583 2.25267ZM43.757 10.6391V14.1854H42.7984H41.8398V16.3245V18.4636H42.7984H43.757V25.9503V33.4371H46.0125H48.268V25.9503V18.4636H50.016H51.764V16.3245V14.1854H50.016H48.268V10.6391V7.09272H46.0125H43.757V10.6391ZM54.809 10.6391V14.1854H53.8504H52.8918V16.3245V18.4636H53.8504H54.809V25.9503V33.4371H57.0645H59.32V25.9503V18.4636H61.068H62.816V16.3245V14.1854H61.068H59.32V10.6391V7.09272H57.0645H54.809V10.6391ZM80.7474 13.4686C80.5303 13.4964 79.9213 13.6222 79.3941 13.748C78.8668 13.8739 77.9026 14.2324 77.2513 14.5448C76.2024 15.0478 75.95 15.2305 75.0408 16.145C74.1811 17.0097 73.9294 17.3504 73.4908 18.2427C73.2028 18.8286 72.8896 19.6119 72.7949 19.9834C72.7 20.355 72.5737 21.123 72.5142 21.6902C72.4437 22.3604 72.4451 23.1356 72.5181 23.9049C72.5799 24.556 72.7508 25.5611 72.8978 26.1387C73.045 26.7162 73.2966 27.5107 73.4572 27.9042C73.6177 28.2977 73.9244 28.931 74.1388 29.3115C74.3532 29.692 74.805 30.3362 75.1428 30.743C75.4805 31.1499 76.0804 31.7256 76.4758 32.0224C76.8713 32.319 77.5432 32.737 77.969 32.9511C78.3949 33.1652 79.1307 33.4427 79.6043 33.5678C80.2456 33.7373 80.8253 33.7959 81.8751 33.7975C82.8855 33.799 83.5743 33.7351 84.3065 33.5717C84.8684 33.4464 85.7385 33.1859 86.24 32.9928C86.7415 32.7998 87.4743 32.4345 87.8685 32.1813C88.2627 31.928 88.9405 31.3552 89.3747 30.9084C89.8089 30.4616 90.4006 29.6952 90.6897 29.2053C90.9787 28.7154 91.4002 27.8672 91.6264 27.3205C91.8526 26.7737 92.0199 26.273 91.9981 26.2078C91.9764 26.1427 91.0728 25.8176 89.99 25.4854C88.9072 25.1531 87.958 24.8812 87.8804 24.881C87.8029 24.8809 87.7395 24.9454 87.7395 25.0245C87.7395 25.1035 87.4654 25.7242 87.1304 26.4036C86.7954 27.0831 86.3099 27.8785 86.0517 28.1714C85.7423 28.5219 85.3054 28.8384 84.7718 29.0986C84.2788 29.339 83.6447 29.5413 83.1525 29.6151C82.5755 29.7017 82.1554 29.7018 81.6865 29.6156C81.325 29.549 80.7502 29.3594 80.409 29.1942C80.0679 29.0289 79.5021 28.6027 79.1517 28.2469C78.7827 27.8725 78.3708 27.3004 78.1729 26.8879C77.985 26.496 77.8001 26.0656 77.7621 25.9313C77.7123 25.7554 77.7496 25.6705 77.8951 25.628C78.0062 25.5956 81.0152 24.9526 84.5817 24.1992C88.1483 23.4458 91.0857 22.8114 91.1095 22.7893C91.1333 22.7673 91.0249 22.1776 90.8688 21.4789C90.7124 20.7803 90.4276 19.8033 90.2355 19.3079C90.0436 18.8126 89.6995 18.0922 89.4709 17.7071C89.2424 17.322 88.8125 16.7073 88.5157 16.3411C88.2188 15.9747 87.6333 15.419 87.2146 15.1059C86.7959 14.7929 86.143 14.3857 85.7637 14.2011C85.3845 14.0166 84.773 13.7834 84.405 13.6832C84.037 13.5829 83.1523 13.4822 82.439 13.4595C81.7257 13.4368 80.9645 13.4409 80.7474 13.4686ZM29.2475 13.7811C28.8034 13.8659 28.169 14.024 27.8378 14.1325C27.5064 14.2409 26.8482 14.5226 26.375 14.7586C25.9017 14.9945 25.1363 15.4913 24.674 15.8626C24.2116 16.234 23.6036 16.8064 23.323 17.1348C23.0424 17.4632 22.6225 18.0293 22.3897 18.393C22.1569 18.7566 21.8425 19.3344 21.6907 19.6768C21.539 20.0192 21.3196 20.7096 21.2031 21.2109C21.0866 21.7123 20.9581 22.5025 20.9176 22.9669C20.8773 23.4313 20.903 24.3417 20.975 24.99C21.047 25.6384 21.2531 26.6263 21.4331 27.1854C21.6131 27.7446 21.9949 28.601 22.2815 29.0886C22.5702 29.5797 23.2116 30.4004 23.7191 30.9282C24.2232 31.4523 25.0162 32.1306 25.4815 32.4356C25.9469 32.7404 26.7331 33.1461 27.2287 33.3369C27.7243 33.5277 28.5375 33.7607 29.0359 33.8547C29.7015 33.9801 30.3909 34.0105 31.6336 33.969C32.8974 33.927 33.5342 33.852 34.1514 33.6722C34.6059 33.5398 35.3015 33.285 35.6971 33.1059C36.0928 32.9268 36.7102 32.5861 37.0689 32.3487C37.4276 32.1114 38.0666 31.5922 38.4888 31.195C38.911 30.7978 39.5508 30.0336 39.9104 29.4967C40.2782 28.9478 40.7146 28.106 40.9076 27.5732C41.0964 27.0522 41.3137 26.2362 41.3905 25.76C41.4784 25.2152 41.5096 24.2966 41.4745 23.2831C41.4277 21.9311 41.3688 21.5184 41.1085 20.7152C40.9379 20.1889 40.6563 19.4796 40.4827 19.1391C40.3093 18.7985 39.9853 18.2666 39.7628 17.957C39.5404 17.6474 39.0412 17.0719 38.6536 16.6782C38.2661 16.2845 37.6364 15.7387 37.2543 15.4654C36.8722 15.1919 36.1719 14.7893 35.6979 14.5708C35.2239 14.3522 34.4454 14.0714 33.9678 13.9469C33.3811 13.7939 32.6059 13.7054 31.5772 13.6737C30.5698 13.6429 29.7816 13.6791 29.2475 13.7811ZM83.6352 17.9307C83.9521 18.0931 84.3634 18.3538 84.5494 18.51C84.7355 18.6662 85.081 19.0743 85.3173 19.4169C85.5536 19.7595 85.7259 20.0595 85.7 20.0836C85.6742 20.1078 83.75 20.5326 81.424 21.0278C79.098 21.523 77.1867 21.9212 77.1767 21.9128C77.1667 21.9042 77.2088 21.622 77.2702 21.2855C77.3316 20.949 77.5316 20.3776 77.7146 20.0156C77.8976 19.6538 78.2436 19.1617 78.4836 18.9221C78.7236 18.6825 79.1421 18.3566 79.4135 18.1978C79.6849 18.039 80.185 17.8316 80.5245 17.737C80.9227 17.6261 81.4826 17.5774 82.1007 17.6003C82.8677 17.6285 83.1744 17.6946 83.6352 17.9307ZM11.2556 17.9609C11.5762 18.0559 12.1563 18.3501 12.5448 18.6147C13.0167 18.936 13.4444 19.364 13.8337 19.9045C14.1541 20.3496 14.5219 21.0306 14.6508 21.4181C14.7798 21.8055 14.9366 22.5264 14.999 23.0199C15.0735 23.6079 15.0752 24.2159 15.0039 24.7835C14.9441 25.2599 14.7938 25.9376 14.6699 26.2895C14.5459 26.6415 14.2888 27.1717 14.0984 27.4679C13.9079 27.7642 13.475 28.2683 13.1361 28.5881C12.7972 28.9081 12.1877 29.3251 11.7814 29.5149C11.2097 29.782 10.8328 29.8731 10.1125 29.9179C9.59946 29.9498 8.91492 29.9186 8.58629 29.8483C8.25856 29.778 7.70325 29.5816 7.3523 29.4117C6.99773 29.24 6.42697 28.8126 6.06812 28.45C5.70216 28.0803 5.27463 27.4946 5.08178 27.099C4.89458 26.7149 4.66429 26.0987 4.5699 25.7297C4.47122 25.3437 4.39825 24.5688 4.39825 23.9057C4.39825 23.2716 4.4552 22.4844 4.52467 22.1562C4.59425 21.8281 4.78936 21.2556 4.95829 20.8841C5.12723 20.5126 5.47063 19.9514 5.72133 19.6369C5.97203 19.3225 6.45189 18.8833 6.78763 18.6608C7.12325 18.4384 7.69987 18.1527 8.06899 18.026C8.53543 17.8659 9.03491 17.7945 9.70638 17.7918C10.2581 17.7897 10.9229 17.8623 11.2556 17.9609ZM32.7888 17.9479C33.1141 18.0344 33.6216 18.2207 33.9166 18.362C34.2116 18.5033 34.7635 18.9274 35.1433 19.3043C35.5229 19.6814 35.9702 20.2592 36.1374 20.5885C36.3045 20.9178 36.5394 21.5704 36.6594 22.0388C36.7929 22.5596 36.8776 23.2698 36.8776 23.8675C36.8776 24.4653 36.7929 25.1755 36.6594 25.6963C36.5394 26.1647 36.3139 26.7991 36.158 27.106C36.0023 27.4129 35.621 27.9411 35.3107 28.28C35.0006 28.6189 34.4481 29.055 34.0832 29.2491C33.7182 29.4433 33.1213 29.6799 32.7566 29.7747C32.392 29.8694 31.709 29.947 31.2389 29.947C30.7687 29.947 30.0961 29.8722 29.7441 29.7806C29.3923 29.6891 28.8614 29.5019 28.5645 29.3644C28.2677 29.2271 27.694 28.7826 27.2897 28.3768C26.8597 27.9453 26.4269 27.3739 26.2472 27.0002C26.078 26.6488 25.8641 26.0408 25.7716 25.6492C25.6791 25.2575 25.6027 24.4284 25.6018 23.8068C25.6007 23.157 25.6724 22.3994 25.7701 22.0247C25.8636 21.6662 26.0785 21.0856 26.2474 20.7345C26.4259 20.3633 26.8623 19.7861 27.2897 19.3557C27.7439 18.8981 28.2703 18.5002 28.6673 18.3137C29.0209 18.1479 29.503 17.9669 29.7387 17.9115C29.9745 17.856 30.6242 17.8062 31.1825 17.8007C31.7407 17.7953 32.4636 17.8615 32.7888 17.9479Z" fill="#69A08A"/>
</svg>
