<svg width="30" height="30" viewBox="0 0 30 30" fill="none" xmlns="http://www.w3.org/2000/svg">
<path d="M15 30C23.2843 30 30 23.2843 30 15C30 6.71573 23.2843 0 15 0C6.71573 0 0 6.71573 0 15C0 23.2843 6.71573 30 15 30Z" fill="#69A08A"/>
<path d="M19.4905 12.6165C19.4676 12.0985 19.3839 11.7423 19.2639 11.4337C19.1401 11.1061 18.9496 10.8128 18.7001 10.569C18.4563 10.3214 18.1611 10.129 17.8373 10.0071C17.5269 9.8871 17.1726 9.80332 16.6545 9.78052C16.1326 9.7557 15.9669 9.75 14.6431 9.75C13.3194 9.75 13.1537 9.7557 12.6337 9.77858C12.1157 9.80138 11.7595 9.88522 11.451 10.0052C11.1233 10.129 10.83 10.3195 10.5862 10.569C10.3386 10.8128 10.1463 11.108 10.0243 11.4319C9.90431 11.7423 9.82054 12.0965 9.79774 12.6146C9.77291 13.1365 9.76721 13.3022 9.76721 14.626C9.76721 15.9497 9.77291 16.1154 9.79579 16.6354C9.81859 17.1534 9.90244 17.5096 10.0224 17.8182C10.1463 18.1458 10.3386 18.439 10.5862 18.6829C10.83 18.9305 11.1252 19.1229 11.449 19.2448C11.7595 19.3648 12.1137 19.4486 12.6318 19.4714C13.1518 19.4943 13.3176 19.5 14.6413 19.5C15.9651 19.5 16.1307 19.4943 16.6507 19.4714C17.1687 19.4486 17.5249 19.3648 17.8335 19.2448C18.4887 18.9914 19.0068 18.4734 19.2601 17.8182C19.38 17.5077 19.4639 17.1534 19.4867 16.6354C19.5096 16.1154 19.5153 15.9497 19.5153 14.626C19.5153 13.3022 19.5134 13.1366 19.4905 12.6165ZM18.6125 16.5973C18.5916 17.0734 18.5115 17.3306 18.4449 17.502C18.2811 17.9267 17.9439 18.2638 17.5192 18.4277C17.3478 18.4944 17.0888 18.5743 16.6145 18.5953C16.1002 18.6181 15.946 18.6238 14.6451 18.6238C13.3442 18.6238 13.188 18.6181 12.6756 18.5953C12.1995 18.5743 11.9423 18.4944 11.7709 18.4277C11.5595 18.3496 11.3671 18.2257 11.211 18.0639C11.049 17.9058 10.9253 17.7153 10.8471 17.504C10.7805 17.3325 10.7005 17.0734 10.6796 16.5992C10.6566 16.0849 10.651 15.9307 10.651 14.6297C10.651 13.3289 10.6566 13.1727 10.6796 12.6604C10.7005 12.1842 10.7805 11.927 10.8471 11.7557C10.9253 11.5441 11.049 11.3518 11.2129 11.1956C11.3709 11.0337 11.5614 10.91 11.7729 10.8319C11.9442 10.7652 12.2033 10.6852 12.6775 10.6642C13.1918 10.6414 13.3461 10.6357 14.6469 10.6357C15.9498 10.6357 16.104 10.6414 16.6164 10.6642C17.0925 10.6852 17.3497 10.7652 17.5211 10.8319C17.7325 10.91 17.9249 11.0337 18.081 11.1956C18.243 11.3537 18.3668 11.5441 18.4449 11.7557C18.5115 11.927 18.5916 12.1861 18.6125 12.6604C18.6354 13.1746 18.6411 13.3289 18.6411 14.6297C18.6411 15.9307 18.6354 16.083 18.6125 16.5973Z" fill="#F7F7F4"/>
<path d="M14.6431 12.1216C13.2604 12.1216 12.1384 13.2434 12.1384 14.6262C12.1384 16.009 13.2604 17.1308 14.6431 17.1308C16.0259 17.1308 17.1478 16.009 17.1478 14.6262C17.1478 13.2434 16.0259 12.1216 14.6431 12.1216ZM14.6431 16.2509C13.7461 16.2509 13.0184 15.5234 13.0184 14.6262C13.0184 13.7291 13.7461 13.0015 14.6431 13.0015C15.5402 13.0015 16.2678 13.7291 16.2678 14.6262C16.2678 15.5234 15.5402 16.2509 14.6431 16.2509Z" fill="#F7F7F4"/>
<path d="M17.8315 12.0222C17.8315 12.3452 17.5697 12.607 17.2467 12.607C16.9238 12.607 16.662 12.3452 16.662 12.0222C16.662 11.6993 16.9238 11.4375 17.2467 11.4375C17.5697 11.4375 17.8315 11.6993 17.8315 12.0222Z" fill="#F7F7F4"/>
</svg>
