<svg width="30" height="30" viewBox="0 0 30 30" fill="none" xmlns="http://www.w3.org/2000/svg">
<path d="M15 30C23.2843 30 30 23.2843 30 15C30 6.71573 23.2843 0 15 0C6.71573 0 0 6.71573 0 15C0 23.2843 6.71573 30 15 30Z" fill="#69A08A"/>
<path d="M16.392 13.3756V14.3131C16.4572 14.2261 16.512 14.1496 16.5712 14.0761C17.053 13.4625 17.8147 13.1373 18.591 13.2136C18.9992 13.2275 19.3976 13.3425 19.7505 13.5481C20.3124 13.8909 20.7097 14.4486 20.85 15.0916C20.9377 15.4421 20.9812 15.8021 20.9797 16.1634C20.9797 17.4504 20.9797 18.7376 20.9797 20.0251C20.9797 20.0461 20.9797 20.0679 20.9797 20.0926H18.75V20.0251C18.75 18.8251 18.75 17.6251 18.75 16.4251C18.7547 16.1592 18.7108 15.8946 18.6202 15.6444C18.486 15.2511 18.1171 14.9861 17.7015 14.9844C17.3611 14.9709 17.0298 15.0964 16.7837 15.3321C16.5376 15.5676 16.3978 15.8932 16.3965 16.2339C16.4025 16.7214 16.3965 17.2089 16.3965 17.6949C16.3965 18.4713 16.3965 19.2476 16.3965 20.0236V20.0941H14.1622V13.3756H16.392Z" fill="#F7F7F4"/>
<path d="M10.5195 13.374H12.75V20.0925H10.5195V13.374Z" fill="#F7F7F4"/>
<path d="M11.6333 12.2072C12.2683 12.2072 12.783 11.6925 12.783 11.0575C12.783 10.4225 12.2683 9.90771 11.6333 9.90771C10.9983 9.90771 10.4835 10.4225 10.4835 11.0575C10.4835 11.6925 10.9983 12.2072 11.6333 12.2072Z" fill="#F7F7F4"/>
</svg>
